PathFileType	4	(X/Y/Z)	C:/Users/beibeiliu/ov580/test_trc/capture2\sequence.20_training_dense_right.trc
DataRate	CameraRate	NumFrames	NumMarkers	Units	OrigDataRate	OrigDataStartFrame	OrigNumFrames
120	120	12	19	mm	120	43	337
Frame#	Time	ThumbCMC			ThumbMCP			ThumbIP			ThumbTip			IndexMCP			IndexPIP			IndexTip			MiddleMCP			MiddlePIP			MiddleTip			RingMCP			RingPIP			RingTip			PinkyMCP			PinkyPIP			PinkyTip			BackHand1			BackHand2			BackHand3	
		X0	Y0	Z0	X1	Y1	Z1	X2	Y2	Z2	X3	Y3	Z3	X4	Y4	Z4	X5	Y5	Z5	X6	Y6	Z6	X7	Y7	Z7	X8	Y8	Z8	X9	Y9	Z9	X10	Y10	Z10	X11	Y11	Z11	X12	Y12	Z12	X13	Y13	Z13	X14	Y14	Z14	X15	Y15	Z15	X16	Y16	Z16	X17	Y17	Z17	X18	Y18	Z18	
42	0.35	137.574	58.0998	27.6401	120.64	66.5976	1.02165	116.41	50.7917	-27.5133	115.715	21.5126	-32.132	153.672	47.2225	-45.218	151.972	46.1469	-65.2936	154.39	41.7596	-88.7478	151.395	27.8563	-54.2252	148.587	27.3542	-73.854	150.055	27.2905	-103.055	143.423	15.4028	-47.4138	142.301	14.4956	-71.6778	142.376	17.0603	-94.4846	133.18	-4.40957	-34.9148	132.333	-2.27242	-56.1108	135.933	-0.876522	-81.1593	153.934	5.41876	4.38073	156.08	2.0351	28.4217	162.484	36.0928	14.2799	
43	0.358333	135.421	62.0782	28.9754	119.244	65.8241	1.57584	114.795	52.6882	-24.363	114.892	27.0001	-29.9011	152.207	49.1513	-39.9047	152.949	50.7986	-69.1714	154.381	45.5687	-88.4382	150.141	31.8976	-48.7454	149.029	34.0277	-75.2913	149.508	31.9537	-100.834	144.574	15.6195	-45.75	142.344	17.2633	-73.156	141.341	14.486	-95.828	135.299	-2.43817	-36.5918	133.017	2.80943	-56.6429	135.656	1.56268	-80.3367	154.369	8.28244	4.95836	158.314	4.8304	29.0307	161.305	34.6726	18.5273	
44	0.366667	132.669	58.9766	26.7264	116.59	66.6814	2.99268	112.458	54.4704	-23.422	113.65	27.8485	-31.3872	151.964	53.7868	-44.3721	150.245	54.4672	-65.4419	151.709	44.7062	-90.0034	150.022	35.9694	-51.545	147.773	33.2382	-76.5384	148.635	33.8529	-103.254	144.213	17.9944	-49.8478	143.123	19.7971	-73.773	141.506	17.9594	-96.6879	135.359	3.8913	-35.036	133.408	3.86838	-59.1511	136.578	8.17267	-80.2372	156.286	10.157	0.459598	157.5	6.73777	32.7098	160.711	40.032	19.4183	
45	0.375	129.55	60.7625	27.8739	113.663	67.5439	-0.015357	110.592	56.5561	-27.6717	114.141	27.354	-35.8528	148.849	55.2953	-39.6153	147.095	58.7532	-65.8333	149.932	51.9611	-91.9302	150.098	40.5315	-50.518	147.568	40.5457	-73.5801	147.584	36.8529	-103.504	144.688	22.5358	-45.1908	143.293	23.0797	-73.2737	143.752	23.1782	-97.1926	138.842	3.55171	-38.1434	135.25	8.31446	-55.3719	139.916	6.14609	-81.8777	155.755	16.0904	3.19479	160.507	7.66433	32.6678	159.536	46.6443	16.8757	
46	0.383333	124.461	64.9012	28.0104	109.656	67.0134	0.838608	107.875	55.1284	-30.0947	113.615	31.4677	-34.2164	144.616	63.2866	-41.4242	143.709	59.7483	-66.1079	147.43	54.2848	-93.1654	148.327	43.2723	-50.43	146.198	44.5387	-76.3745	146.394	41.83	-103.628	146.155	26.7335	-45.981	144.447	27.6323	-73.3368	144.722	28.3515	-98.1842	142.885	5.83097	-40.0802	138.792	9.18767	-62.6045	141.246	15.04	-81.4872	156.493	15.9934	-1.4003	162.103	13.3708	27.4888	157.501	47.0833	16.8243	
47	0.391667	120.285	60.5131	30.5384	102.094	66.1227	-0.701675	102.561	55.7652	-28.6329	115.974	28.9809	-33.0359	138.876	67.4005	-40.4083	139.925	61.9237	-67.0601	142.555	63.1117	-89.5711	147.044	45.3747	-52.7448	144.773	48.0352	-79.4213	146.149	49.6011	-106.085	147.451	29.3505	-46.6681	146.751	28.8825	-75.3247	146.078	32.3775	-97.0214	145.021	11.0767	-39.426	140.582	16.7628	-59.145	144.735	20.4438	-80.6403	160.694	21.8515	1.80655	163.621	21.9288	31.7094	154.055	52.9722	20.6341	
48	0.4	113.803	61.5454	29.6977	95.9475	62.8871	0.260399	101.094	51.0731	-29.6952	114.256	30.2911	-35.9912	135.665	67.2599	-45.826	133.269	69.5049	-64.5305	139.045	63.4996	-87.9131	145.268	49.3856	-53.0904	142.264	52.5917	-76.5506	144.728	53.6929	-104.417	148.136	36.1459	-48.287	147.554	34.3732	-70.6118	148.877	36.0733	-101.2	148.756	14.1514	-38.1817	146.435	15.4043	-60.4137	146.955	24.0617	-80.0443	161.222	27.9837	3.64108	165.981	27.0998	28.862	150.268	58.205	19.4769	
49	0.408333	112.427	58.335	27.2966	96.6336	57.5753	-3.57388	97.9748	48.6236	-28.2788	118.198	27.6475	-36.1507	130.819	67.4265	-42.4452	130.419	67.5651	-70.3305	135.959	66.2364	-93.1764	141.949	55.7574	-49.0387	143.389	52.54	-79.3593	143.656	55.4552	-102.525	150.708	36.3122	-50.3082	147.686	39.8486	-70.9514	150.464	41.3293	-99.4748	151.137	20.0029	-36.9319	148.792	18.6905	-60.302	150.852	27.1534	-78.5181	162.651	34.4326	0.987709	163.829	34.4153	29.0085	148.265	61.698	19.3419	
50	0.416667	106.824	57.8964	24.8222	90.8324	52.6006	-3.63262	97.2304	43.8688	-28.8731	121.009	25.7236	-39.0675	126.64	70.6041	-45.3469	125.828	70.2567	-69.1305	131.43	68.8976	-90.81	140.475	58.1628	-55.1524	138.37	57.5049	-75.9997	144.546	55.7954	-103.562	152.323	39.3244	-50.6651	149.821	40.6637	-71.6061	152.344	42.9847	-100.008	154.519	23.1216	-39.845	150.119	26.2452	-59.9783	156.151	27.2636	-81.9699	161.116	41.8926	-2.09231	165.653	40.7952	27.1438	144.687	62.0422	19.0259	
51	0.425	103.334	53.4329	27.5345	92.8623	47.1259	-5.03602	99.0737	37.7953	-28.4838	122.583	23.8827	-38.3528	123.9	67.2771	-43.4091	122.27	65.8762	-67.2412	125.318	69.7946	-92.5509	138.867	57.5711	-51.2217	136.671	57.784	-75.9738	138.46	62.128	-105.992	153.242	40.7401	-50.2183	148.085	45.244	-75.8309	152.105	46.1841	-100.613	157.502	26.8148	-41.8198	156.734	24.502	-60.1219	158.629	33.8155	-85.3083	161.441	44.9673	-2.662	167.786	41.7179	27.6258	140.565	65.7697	17.4942	
52	0.433333	102.753	50.5607	25.3069	89.42	41.0304	-5.10061	101.01	32.7526	-29.8285	121.515	21.9136	-40.556	120.17	64.2236	-48.6001	116.775	66.1876	-71.9126	125.125	65.4216	-96.9381	137.876	57.4269	-55.6998	132.659	57.8919	-77.4271	138.189	59.1746	-106.016	149.818	45.0666	-53.0836	148.635	45.1421	-75.0167	150.847	48.5528	-101.559	159.568	29.5016	-40.4919	157.034	30.1162	-61.8246	159.455	36.4542	-83.8288	162.94	46.7799	-2.1493	163.289	47.1464	30.0137	138.248	63.3001	15.8138	
53	0.441667	102.088	45.65	25.599	87.7222	35.954	-4.67914	97.8411	28.3565	-29.102	126.387	19.2279	-41.0057	116.435	61.2638	-45.6639	116.224	59.556	-68.4789	121.233	60.5052	-92.8083	132.642	57.432	-53.8513	133.195	56.6797	-81.5927	136.186	58.1691	-105.266	151.24	45.0649	-54.5791	149.915	44.9677	-74.5801	145.786	50.4479	-101.864	163.479	30.548	-40.3849	162.461	29.658	-61.2588	160.026	39.0667	-82.0535	161.596	49.942	0.0801744	162.75	50.8249	28.0193	132.84	66.0601	15.169	
